<?xml version="1.0" standalone="no"?>
<!DOCTYPE svg PUBLIC "-//W3C//DTD SVG 20010904//EN"
 "http://www.w3.org/TR/2001/REC-SVG-20010904/DTD/svg10.dtd">
<svg version="1.0" xmlns="http://www.w3.org/2000/svg"
 width="600.000000pt" height="600.000000pt" viewBox="0 0 600.000000 600.000000"
 preserveAspectRatio="xMidYMid meet">
<metadata>
Created by potrace 1.14, written by Peter Selinger 2001-2017
</metadata>
<g transform="translate(0.000000,600.000000) scale(0.100000,-0.100000)"
fill="#000000" stroke="none">
<path d="M1854 5719 c-168 -29 -365 -140 -514 -291 -191 -193 -320 -407 -468
-773 -45 -112 -139 -443 -155 -550 -3 -16 -14 -82 -25 -145 -11 -63 -23 -149
-27 -190 -4 -41 -9 -83 -10 -92 -8 -40 -18 -275 -18 -418 -1 -185 13 -433 29
-522 2 -15 6 -48 9 -73 12 -119 68 -401 106 -530 29 -99 97 -303 116 -345 8
-19 19 -44 23 -55 126 -302 316 -574 520 -744 106 -88 256 -165 373 -191 l52
-12 0 -259 0 -259 122 0 c91 0 123 3 124 13 0 6 1 123 1 258 l0 246 71 18
c261 68 531 302 723 628 27 47 148 292 158 321 5 15 21 -3 72 -85 138 -216
290 -396 469 -554 102 -90 291 -203 405 -243 120 -41 174 -52 293 -57 26 -1
49 -4 52 -6 2 -3 18 -68 35 -144 63 -286 80 -355 89 -355 6 1 121 27 146 34 6
2 27 6 48 11 37 7 39 9 32 39 -3 17 -9 42 -11 56 -3 14 -12 51 -20 83 -8 32
-19 77 -23 100 -5 23 -16 76 -26 117 -9 41 -18 85 -21 97 -3 18 5 26 47 47 87
44 153 93 233 173 117 116 205 257 301 478 12 30 67 191 71 210 1 6 11 46 22
90 23 90 49 225 57 300 3 28 8 61 10 75 22 141 22 663 0 779 -2 9 -6 47 -9 83
-4 37 -9 77 -11 89 -3 13 -7 41 -10 64 -3 22 -10 63 -15 90 -5 28 -12 66 -15
85 -4 19 -11 55 -16 80 -6 25 -13 56 -15 70 -3 14 -7 33 -10 42 -3 9 -6 25 -8
35 -2 10 -10 38 -17 63 -7 25 -13 50 -15 55 -45 189 -161 497 -270 723 -59
120 -235 428 -253 442 -4 3 -23 28 -42 55 -18 28 -36 52 -39 55 -3 3 -32 39
-65 79 -131 164 -316 327 -475 423 -335 200 -684 198 -960 -4 -73 -54 -179
-165 -232 -243 -24 -36 -46 -65 -50 -65 -3 0 -36 38 -72 84 -164 211 -384 361
-597 408 -74 17 -219 21 -295 7z"/>
</g>
</svg>
